<svg width="127" height="53" viewBox="0 0 127 53" fill="none" xmlns="http://www.w3.org/2000/svg">
<rect x="0.5" y="1.38538" width="126" height="51" rx="5.5" fill="white"/>
<rect x="0.5" y="1.38538" width="126" height="51" rx="5.5" stroke="#3730A3"/>
<path d="M24.9993 13.7576C18.6241 13.7567 13.1896 18.5457 12.1688 25.0638C11.1481 31.5819 14.8427 37.9046 20.8913 39.991C21.5427 40.1124 21.776 39.6981 21.776 39.3419C21.776 39.022 21.7655 38.1745 21.7616 37.0477C18.1461 37.8574 17.3826 35.242 17.3826 35.242C17.1445 34.4282 16.6328 33.7296 15.9402 33.273C14.7676 32.4377 16.0301 32.4566 16.0301 32.4566C16.8649 32.5751 17.5996 33.0874 18.0197 33.8439C18.3753 34.5136 18.9744 35.0085 19.6839 35.2185C20.3934 35.4286 21.1545 35.3365 21.7981 34.9626C21.8586 34.2798 22.1519 33.6416 22.6255 33.1624C19.7408 32.8237 16.7076 31.6685 16.7076 26.5092C16.6916 25.1748 17.17 23.8848 18.0444 22.9046C17.6488 21.7431 17.6954 20.4691 18.1747 19.3419C18.1747 19.3419 19.2653 18.9789 21.7473 20.7198C23.876 20.1152 26.1227 20.1152 28.2514 20.7198C30.7347 18.9775 31.824 19.3419 31.824 19.3419C32.3055 20.4686 32.3521 21.7435 31.9543 22.9046C32.8318 23.8847 33.3099 25.1781 33.2884 26.5146C33.2884 31.6874 30.2527 32.8237 27.3576 33.157C27.9821 33.8183 28.3024 34.7256 28.2371 35.6482C28.2371 37.4485 28.2214 38.9006 28.2214 39.3419C28.2214 39.7022 28.4534 40.1205 29.1165 39.9883C35.1626 37.8983 38.8532 31.5753 37.8304 25.0589C36.8076 18.5425 31.3732 13.7561 24.9993 13.7576Z" fill="#3730A3"/>
<path d="M58.2976 24.9301C58.174 24.5423 58.0078 24.195 57.799 23.8882C57.5945 23.5771 57.3494 23.3129 57.0639 23.0956C56.7784 22.874 56.4524 22.7057 56.0859 22.5906C55.7237 22.4756 55.3253 22.418 54.8906 22.418C54.1534 22.418 53.4886 22.6077 52.8963 22.9869C52.304 23.3662 51.8352 23.9223 51.4901 24.6553C51.1491 25.384 50.9787 26.2767 50.9787 27.3335C50.9787 28.3946 51.1513 29.2916 51.4964 30.0246C51.8416 30.7575 52.3146 31.3136 52.9155 31.6929C53.5163 32.0722 54.2003 32.2618 54.9673 32.2618C55.679 32.2618 56.299 32.1169 56.8274 31.8271C57.3601 31.5374 57.7713 31.1283 58.0611 30.5999C58.3551 30.0672 58.5021 29.4408 58.5021 28.7206L59.0135 28.8165H55.2678V27.1865H60.4134V28.6759C60.4134 29.7753 60.179 30.7298 59.7102 31.5395C59.2457 32.3449 58.6023 32.9671 57.7798 33.406C56.9616 33.8449 56.0241 34.0644 54.9673 34.0644C53.7827 34.0644 52.7429 33.7916 51.848 33.2462C50.9574 32.7007 50.2628 31.9273 49.7642 30.9259C49.2656 29.9202 49.0163 28.727 49.0163 27.3463C49.0163 26.3023 49.1612 25.3648 49.451 24.5338C49.7408 23.7028 50.1477 22.9976 50.6719 22.418C51.2003 21.8342 51.8203 21.3889 52.532 21.0821C53.2479 20.771 54.0298 20.6155 54.8778 20.6155C55.5852 20.6155 56.2436 20.7199 56.853 20.9287C57.4666 21.1375 58.0121 21.4337 58.4893 21.8172C58.9709 22.2007 59.3693 22.6567 59.6847 23.1851C60 23.7092 60.2131 24.2909 60.3239 24.9301H58.2976ZM63.3825 33.8854V24.0672H65.2937V33.8854H63.3825ZM64.3477 22.5523C64.0153 22.5523 63.7298 22.4415 63.4911 22.2199C63.2567 21.994 63.1396 21.7256 63.1396 21.4145C63.1396 21.0992 63.2567 20.8307 63.4911 20.6091C63.7298 20.3832 64.0153 20.2703 64.3477 20.2703C64.68 20.2703 64.9634 20.3832 65.1978 20.6091C65.4364 20.8307 65.5558 21.0992 65.5558 21.4145C65.5558 21.7256 65.4364 21.994 65.1978 22.2199C64.9634 22.4415 64.68 22.5523 64.3477 22.5523ZM72.448 24.0672V25.6013H67.085V24.0672H72.448ZM68.5233 21.7149H70.4345V31.0026C70.4345 31.3733 70.4899 31.6524 70.6007 31.8399C70.7115 32.0232 70.8542 32.1489 71.0289 32.2171C71.2079 32.281 71.4018 32.3129 71.6106 32.3129C71.764 32.3129 71.8983 32.3023 72.0133 32.281C72.1284 32.2597 72.2179 32.2426 72.2818 32.2298L72.627 33.8087C72.5162 33.8513 72.3585 33.8939 72.1539 33.9365C71.9494 33.9834 71.6937 34.009 71.3869 34.0132C70.8841 34.0217 70.4153 33.9323 69.9806 33.7448C69.546 33.5573 69.1944 33.2675 68.926 32.8754C68.6575 32.4834 68.5233 31.9912 68.5233 31.3989V21.7149ZM76.6843 28.0558V33.8854H74.7731V20.7945H76.6587V25.6652H76.7802C77.0103 25.1368 77.3619 24.7171 77.8349 24.406C78.3079 24.0949 78.9258 23.9394 79.6886 23.9394C80.3619 23.9394 80.9499 24.0778 81.4528 24.3548C81.9599 24.6318 82.3519 25.0452 82.6289 25.5949C82.9102 26.1403 83.0508 26.8222 83.0508 27.6403V33.8854H81.1396V27.8705C81.1396 27.1503 80.9542 26.5921 80.5835 26.1957C80.2127 25.7952 79.6971 25.5949 79.0366 25.5949C78.5849 25.5949 78.18 25.6908 77.8221 25.8825C77.4684 26.0743 77.1893 26.3555 76.9847 26.7263C76.7844 27.0928 76.6843 27.5359 76.6843 28.0558ZM91.8207 29.8136V24.0672H93.7383V33.8854H91.859V32.1851H91.7567C91.5309 32.7092 91.1687 33.146 90.6701 33.4955C90.1758 33.8406 89.56 34.0132 88.8228 34.0132C88.1921 34.0132 87.6339 33.8747 87.1481 33.5977C86.6665 33.3165 86.2873 32.901 86.0103 32.3513C85.7376 31.8016 85.6012 31.1219 85.6012 30.3122V24.0672H87.5124V30.0821C87.5124 30.7511 87.6978 31.2838 88.0685 31.6801C88.4393 32.0764 88.9208 32.2746 89.5131 32.2746C89.8711 32.2746 90.2269 32.1851 90.5806 32.0061C90.9386 31.8271 91.2347 31.5565 91.4691 31.1943C91.7077 30.8321 91.8249 30.3719 91.8207 29.8136ZM96.4597 33.8854V20.7945H98.3709V25.6588H98.486C98.5968 25.4543 98.7566 25.2178 98.9654 24.9493C99.1742 24.6808 99.464 24.4465 99.8347 24.2462C100.205 24.0416 100.695 23.9394 101.305 23.9394C102.097 23.9394 102.805 24.1396 103.427 24.5402C104.049 24.9408 104.537 25.5182 104.891 26.2724C105.249 27.0267 105.428 27.9344 105.428 28.9955C105.428 30.0565 105.251 30.9663 104.897 31.7249C104.544 32.4791 104.058 33.0608 103.44 33.4699C102.822 33.8747 102.117 34.0771 101.324 34.0771C100.727 34.0771 100.24 33.977 99.8603 33.7767C99.4853 33.5764 99.1912 33.3421 98.9782 33.0736C98.7651 32.8051 98.601 32.5665 98.486 32.3577H98.3262V33.8854H96.4597ZM98.3326 28.9763C98.3326 29.6666 98.4327 30.2717 98.633 30.7916C98.8333 31.3115 99.123 31.7185 99.5023 32.0125C99.8816 32.3023 100.346 32.4472 100.896 32.4472C101.467 32.4472 101.944 32.2959 102.328 31.9933C102.711 31.6865 103.001 31.271 103.197 30.7469C103.397 30.2227 103.497 29.6325 103.497 28.9763C103.497 28.3286 103.399 27.7469 103.203 27.2313C103.012 26.7156 102.722 26.3087 102.334 26.0104C101.95 25.7121 101.471 25.5629 100.896 25.5629C100.342 25.5629 99.873 25.7057 99.4895 25.9912C99.1103 26.2767 98.8226 26.6751 98.6266 27.1865C98.4306 27.6979 98.3326 28.2945 98.3326 28.9763Z" fill="#3730A3"/>
</svg>
