<svg width="139" height="53" viewBox="0 0 139 53" fill="none" xmlns="http://www.w3.org/2000/svg">
<rect x="0.5" y="1.38538" width="138" height="51" rx="5.5" fill="white"/>
<rect x="0.5" y="1.38538" width="138" height="51" rx="5.5" stroke="#3730A3"/>
<path d="M25.3333 39.4881H20V22.6844H25.3333V25.485C26.4701 23.9661 28.1941 23.0605 30.0333 23.0163C33.3407 23.0356 36.0096 25.8622 36 29.3359V39.4881H30.6666V30.036C30.4533 28.4714 29.1756 27.3104 27.6706 27.3138C27.0123 27.3357 26.391 27.6384 25.9499 28.1521C25.5088 28.6658 25.2862 29.3461 25.3333 30.036V39.4881ZM17.3333 39.4881H12V22.6844H17.3333V39.4881ZM14.6667 19.8838C13.1939 19.8838 12 18.6299 12 17.0832C12 15.5365 13.1939 14.2826 14.6667 14.2826C16.1394 14.2826 17.3333 15.5365 17.3333 17.0832C17.3333 17.826 17.0524 18.5383 16.5523 19.0635C16.0522 19.5887 15.3739 19.8838 14.6667 19.8838Z" fill="#3730A3"/>
<path d="M47.4382 33.8854V20.7945H49.4134V32.1851H55.3452V33.8854H47.4382ZM57.445 33.8854V24.0672H59.3562V33.8854H57.445ZM58.4102 22.5523C58.0778 22.5523 57.7923 22.4415 57.5536 22.2199C57.3192 21.994 57.2021 21.7256 57.2021 21.4145C57.2021 21.0992 57.3192 20.8307 57.5536 20.6091C57.7923 20.3832 58.0778 20.2703 58.4102 20.2703C58.7425 20.2703 59.0259 20.3832 59.2603 20.6091C59.4989 20.8307 59.6183 21.0992 59.6183 21.4145C59.6183 21.7256 59.4989 21.994 59.2603 22.2199C59.0259 22.4415 58.7425 22.5523 58.4102 22.5523ZM63.8386 28.0558V33.8854H61.9274V24.0672H63.7619V25.6652H63.8833C64.1092 25.1453 64.4629 24.7277 64.9444 24.4124C65.4302 24.097 66.0417 23.9394 66.7789 23.9394C67.448 23.9394 68.0339 24.08 68.5368 24.3612C69.0396 24.6382 69.4295 25.0516 69.7065 25.6013C69.9835 26.151 70.122 26.8307 70.122 27.6403V33.8854H68.2108V27.8705C68.2108 27.1588 68.0254 26.6027 67.6547 26.2021C67.2839 25.7973 66.7747 25.5949 66.127 25.5949C65.6838 25.5949 65.2896 25.6908 64.9444 25.8825C64.6035 26.0743 64.3329 26.3555 64.1326 26.7263C63.9366 27.0928 63.8386 27.5359 63.8386 28.0558ZM74.443 30.5551L74.4302 28.222H74.7626L78.6745 24.0672H80.9629L76.5012 28.7973H76.2008L74.443 30.5551ZM72.6852 33.8854V20.7945H74.5964V33.8854H72.6852ZM78.8855 33.8854L75.3699 29.2192L76.6866 27.8832L81.2314 33.8854H78.8855ZM86.532 34.0835C85.5646 34.0835 84.7315 33.8769 84.0327 33.4635C83.3381 33.0459 82.8011 32.4599 82.4219 31.7057C82.0469 30.9472 81.8594 30.0587 81.8594 29.0402C81.8594 28.0345 82.0469 27.1482 82.4219 26.3811C82.8011 25.6141 83.3295 25.0153 84.0071 24.5849C84.6889 24.1546 85.4858 23.9394 86.3977 23.9394C86.9517 23.9394 87.4886 24.031 88.0085 24.2142C88.5284 24.3974 88.995 24.6851 89.4084 25.0771C89.8217 25.4692 90.1477 25.9784 90.3864 26.6048C90.625 27.227 90.7443 27.9834 90.7443 28.874V29.5516H82.9396V28.1198H88.8714C88.8714 27.6169 88.7692 27.1716 88.5646 26.7838C88.3601 26.3918 88.0724 26.0828 87.7017 25.857C87.3352 25.6311 86.9048 25.5182 86.4105 25.5182C85.8736 25.5182 85.4048 25.6503 85.0043 25.9145C84.608 26.1744 84.3011 26.5153 84.0838 26.9372C83.8707 27.3548 83.7642 27.8087 83.7642 28.2987V29.4173C83.7642 30.0736 83.8793 30.6318 84.1094 31.0921C84.3438 31.5523 84.6697 31.9038 85.0874 32.1467C85.505 32.3854 85.9929 32.5047 86.5511 32.5047C86.9134 32.5047 87.2436 32.4536 87.5419 32.3513C87.8402 32.2448 88.098 32.0871 88.3153 31.8783C88.5327 31.6695 88.6989 31.4117 88.8139 31.1048L90.6229 31.4308C90.478 31.9635 90.218 32.4301 89.843 32.8307C89.4723 33.227 89.0057 33.5359 88.4432 33.7575C87.8849 33.9749 87.2479 34.0835 86.532 34.0835ZM96.5403 34.0771C95.7477 34.0771 95.0403 33.8747 94.4181 33.4699C93.8002 33.0608 93.3145 32.4791 92.9608 31.7249C92.6113 30.9663 92.4366 30.0565 92.4366 28.9955C92.4366 27.9344 92.6135 27.0267 92.9672 26.2724C93.3251 25.5182 93.8152 24.9408 94.4373 24.5402C95.0595 24.1396 95.7647 23.9394 96.5531 23.9394C97.1625 23.9394 97.6525 24.0416 98.0233 24.2462C98.3983 24.4465 98.688 24.6808 98.8926 24.9493C99.1014 25.2178 99.2633 25.4543 99.3784 25.6588H99.4934V20.7945H101.405V33.8854H99.5382V32.3577H99.3784C99.2633 32.5665 99.0971 32.8051 98.8798 33.0736C98.6667 33.3421 98.3727 33.5764 97.9977 33.7767C97.6227 33.977 97.1369 34.0771 96.5403 34.0771ZM96.9622 32.4472C97.5119 32.4472 97.9764 32.3023 98.3556 32.0125C98.7392 31.7185 99.0289 31.3115 99.225 30.7916C99.4252 30.2717 99.5254 29.6666 99.5254 28.9763C99.5254 28.2945 99.4274 27.6979 99.2314 27.1865C99.0353 26.6751 98.7477 26.2767 98.3684 25.9912C97.9892 25.7057 97.5204 25.5629 96.9622 25.5629C96.3869 25.5629 95.9075 25.7121 95.524 26.0104C95.1404 26.3087 94.8507 26.7156 94.6547 27.2313C94.4629 27.7469 94.367 28.3286 94.367 28.9763C94.367 29.6325 94.465 30.2227 94.661 30.7469C94.8571 31.271 95.1468 31.6865 95.5304 31.9933C95.9181 32.2959 96.3954 32.4472 96.9622 32.4472ZM104.132 33.8854V24.0672H106.044V33.8854H104.132ZM105.098 22.5523C104.765 22.5523 104.48 22.4415 104.241 22.2199C104.007 21.994 103.89 21.7256 103.89 21.4145C103.89 21.0992 104.007 20.8307 104.241 20.6091C104.48 20.3832 104.765 20.2703 105.098 20.2703C105.43 20.2703 105.713 20.3832 105.948 20.6091C106.186 20.8307 106.306 21.0992 106.306 21.4145C106.306 21.7256 106.186 21.994 105.948 22.2199C105.713 22.4415 105.43 22.5523 105.098 22.5523ZM110.526 28.0558V33.8854H108.615V24.0672H110.449V25.6652H110.571C110.797 25.1453 111.15 24.7277 111.632 24.4124C112.118 24.097 112.729 23.9394 113.466 23.9394C114.135 23.9394 114.721 24.08 115.224 24.3612C115.727 24.6382 116.117 25.0516 116.394 25.6013C116.671 26.151 116.809 26.8307 116.809 27.6403V33.8854H114.898V27.8705C114.898 27.1588 114.713 26.6027 114.342 26.2021C113.971 25.7973 113.462 25.5949 112.814 25.5949C112.371 25.5949 111.977 25.6908 111.632 25.8825C111.291 26.0743 111.02 26.3555 110.82 26.7263C110.624 27.0928 110.526 27.5359 110.526 28.0558Z" fill="#3730A3"/>
</svg>
